<?xml version="1.0" encoding="utf-8"?>
<!-- Generator: Adobe Illustrator 24.0.2, SVG Export Plug-In . SVG Version: 6.00 Build 0)  -->
<svg version="1.1" id="Layer_1" xmlns="http://www.w3.org/2000/svg" xmlns:xlink="http://www.w3.org/1999/xlink" x="0px" y="0px"
	 viewBox="0 0 611.02 396.4" style="enable-background:new 0 0 611.02 396.4;" xml:space="preserve">
<style type="text/css">
	.st0{fill:#8C8F97;}
	.st1{clip-path:url(#SVGID_2_);fill:#8C8F97;}
	.st2{clip-path:url(#SVGID_2_);fill:#F58345;}
</style>
<rect x="287.46" y="174.6" class="st0" width="5.64" height="37.18"/>
<g>
	<defs>
		<rect id="SVGID_1_" width="611.02" height="396.4"/>
	</defs>
	<clipPath id="SVGID_2_">
		<use xlink:href="#SVGID_1_"  style="overflow:visible;"/>
	</clipPath>
	<path class="st1" d="M310.8,212.1c-3.82,0-6.49-1.04-9.04-3.61l3.75-3.7c1.3,1.3,2.56,2.24,5.29,2.24c4.17,0,6.73-2.55,6.73-7.41
		V174.6h5.64v25.44C323.18,207.77,317.65,212.1,310.8,212.1"/>
	<path class="st1" d="M366.21,211.79h-15.04V174.6h14.47c6.88,0,11.22,3.91,11.22,10.19c0,4.01-2.5,6.9-5.02,7.89
		c2.87,1.15,5.59,3.91,5.59,8.62C377.44,208.13,372.79,211.79,366.21,211.79 M365.16,179.67h-8.36v10.65h8.36
		c3.61,0,6.06-1.88,6.06-5.33C371.23,181.55,368.77,179.67,365.16,179.67 M365.69,195.38h-8.89v11.35h8.89
		c3.91,0,6.11-2.41,6.11-5.69C371.8,197.75,369.6,195.38,365.69,195.38"/>
	<rect x="388.93" y="174.6" class="st1" width="5.63" height="37.18"/>
	<path class="st1" d="M427.93,211.79l-7.83-15.66h-7.05v15.66h-5.63V174.6h14.41c7.05,0,11.54,4.54,11.54,10.86
		c0,5.33-3.23,8.72-7.42,9.87l8.57,16.45H427.93z M421.41,179.67h-8.37v11.65h8.37c3.76,0,6.32-2.14,6.32-5.81
		C427.72,181.86,425.17,179.67,421.41,179.67"/>
	<path class="st1" d="M466.57,208.13c-2.56,2.56-5.85,3.97-9.82,3.97c-3.96,0-7.2-1.4-9.76-3.97c-3.65-3.65-3.6-7.79-3.6-14.94
		c0-7.15-0.05-11.27,3.6-14.94c2.57-2.56,5.81-3.97,9.76-3.97c3.98,0,7.26,1.4,9.82,3.97c3.66,3.66,3.55,7.79,3.55,14.94
		C470.13,200.35,470.23,204.48,466.57,208.13 M462.3,181.65c-1.31-1.4-3.35-2.29-5.54-2.29c-2.18,0-4.22,0.89-5.53,2.29
		c-1.83,1.99-2.18,4.07-2.18,11.54c0,7.47,0.36,9.56,2.18,11.54c1.31,1.42,3.35,2.29,5.53,2.29c2.19,0,4.23-0.88,5.54-2.29
		c1.83-1.98,2.18-4.07,2.18-11.54C464.48,185.73,464.12,183.64,462.3,181.65"/>
	<path class="st1" d="M484.76,212.1c-3.82,0-6.49-1.04-9.04-3.61l3.76-3.7c1.3,1.3,2.56,2.24,5.29,2.24c4.17,0,6.73-2.55,6.73-7.41
		V174.6h5.64v25.44C497.12,207.77,491.6,212.1,484.76,212.1"/>
	<path class="st1" d="M519.33,212.1c-5.59,0-9.61-1.31-13.16-4.91l3.76-3.71c2.71,2.72,5.68,3.55,9.5,3.55
		c4.86,0,7.68-2.09,7.68-5.69c0-1.62-0.48-2.97-1.46-3.86c-0.94-0.89-1.88-1.25-4.07-1.57l-4.39-0.62
		c-3.03-0.42-5.43-1.46-7.05-2.97c-1.83-1.73-2.72-4.08-2.72-7.11c0-6.49,4.7-10.92,12.43-10.92c4.9,0,8.36,1.25,11.55,4.23
		l-3.6,3.56c-2.3-2.19-4.96-2.88-8.1-2.88c-4.39,0-6.8,2.52-6.8,5.81c0,1.36,0.42,2.55,1.41,3.44c0.94,0.83,2.46,1.46,4.18,1.72
		l4.23,0.63c3.45,0.53,5.37,1.36,6.95,2.76c2.03,1.78,3.03,4.45,3.03,7.62C532.7,208.03,527.11,212.1,519.33,212.1"/>
	<path class="st1" d="M118.82,333.81c-22.33,0-40.5-18.16-40.5-40.48h30.61c0,5.45,4.43,9.88,9.89,9.88c5.45,0,9.89-4.42,9.89-9.88
		V76.87h30.61v216.45C159.33,315.65,141.15,333.81,118.82,333.81"/>
	<path class="st2" d="M221.03,187.47c12.2-11.63,19.84-28.02,19.84-46.16c0-35.17-28.61-63.77-63.78-63.77v30.43
		c18.38,0,33.34,14.96,33.34,33.34c0,16.93-12.68,30.92-29.04,33.04c-1.42-0.07-2.86-0.12-4.3-0.12v0.42v30.44v7.2
		c22.99,0,41.7,18.71,41.7,41.71c0,22.99-18.7,41.7-41.7,41.7v38.06c43.98,0,79.76-35.78,79.76-79.76
		C256.85,226.24,242.59,201.76,221.03,187.47"/>
	<rect x="78.32" y="76.87" class="st1" width="30.61" height="194.83"/>
</g>
</svg>
